<?xml version="1.0" standalone="no"?>
<!DOCTYPE svg PUBLIC "-//W3C//DTD SVG 20010904//EN"
 "http://www.w3.org/TR/2001/REC-SVG-20010904/DTD/svg10.dtd">
<svg version="1.0" xmlns="http://www.w3.org/2000/svg"
 width="300.000000pt" height="300.000000pt" viewBox="0 0 300.000000 300.000000"
 preserveAspectRatio="xMidYMid meet">
<metadata>
Created by potrace 1.14, written by Peter Selinger 2001-2017
</metadata>
<g transform="translate(0.000000,300.000000) scale(0.100000,-0.100000)"
fill="#000000" stroke="none">
<path d="M1055 2990 c-8 -13 5 -13 25 0 13 8 13 10 -2 10 -9 0 -20 -4 -23 -10z"/>
<path d="M1940 2996 c0 -2 27 -20 60 -40 80 -50 159 -119 211 -186 24 -30 46
-56 49 -58 12 -5 -24 -71 -38 -72 -21 0 -10 -17 27 -42 19 -13 41 -34 50 -48
15 -23 15 -24 -4 -15 -11 4 -34 10 -52 13 -34 4 -38 -2 -46 -98 l-3 -35 -11
26 c-13 30 -19 154 -9 184 5 15 -3 31 -30 60 -29 32 -32 34 -15 8 12 -17 21
-47 21 -67 0 -31 -3 -36 -24 -36 -16 0 -32 12 -49 38 -34 48 -114 135 -95 102
8 -14 36 -60 62 -103 45 -72 50 -77 66 -62 9 8 19 13 22 10 2 -3 -4 -40 -15
-82 l-20 -78 43 -70 c23 -38 49 -77 57 -87 8 -9 23 -43 33 -75 12 -39 19 -50
19 -33 2 24 2 24 16 6 8 -11 15 -29 15 -41 0 -30 40 -65 74 -65 27 0 216 35
246 46 13 4 13 6 0 14 -9 6 -17 5 -22 -3 -9 -15 -13 -9 -22 28 -7 29 -7 29 12
12 24 -22 38 -7 22 22 -13 26 -13 31 4 31 8 0 16 13 18 30 5 36 -6 48 -21 23
-5 -10 -13 -14 -17 -10 -4 4 -2 13 4 19 7 7 12 22 12 34 0 13 5 26 10 29 15 9
12 35 -5 35 -8 0 -21 14 -30 30 -14 27 -14 30 1 30 12 0 14 5 9 18 -5 9 -15
37 -24 62 -10 25 -25 59 -35 75 -17 30 -16 24 13 -52 8 -23 13 -44 10 -47 -13
-13 -79 31 -89 59 -7 17 -15 37 -19 45 -5 8 -4 26 2 40 16 41 7 82 -29 124
-19 22 -34 43 -34 48 0 4 -4 8 -10 8 -5 0 -10 -22 -10 -50 0 -39 -3 -50 -16
-50 -14 0 -123 107 -124 121 0 10 -130 113 -186 148 -41 26 -84 40 -84 27z
m480 -318 c0 -18 -5 -28 -15 -28 -18 0 -45 51 -45 86 l0 28 30 -29 c19 -19 30
-39 30 -57z m-70 -8 c11 -11 20 -25 20 -30 0 -6 12 -16 28 -22 l27 -11 -32
-10 c-25 -8 -38 -6 -56 6 -14 9 -33 14 -44 11 -11 -3 -25 2 -33 11 -11 13 -9
19 10 40 28 30 53 32 80 5z m70 -118 c0 -9 -4 -23 -9 -31 -8 -12 -12 -12 -25
-2 -13 11 -19 11 -31 1 -13 -10 -15 -9 -15 8 0 26 18 38 33 23 17 -17 27 -13
27 10 0 11 5 17 10 14 6 -3 10 -14 10 -23z m-107 -86 c31 -22 37 -56 10 -56
-29 1 -52 25 -60 60 -7 36 -5 36 50 -4z m69 2 c-9 -9 -12 -7 -12 12 0 19 3 21
12 12 9 -9 9 -15 0 -24z m164 -93 c16 -40 18 -55 5 -55 -5 0 -13 15 -16 33 -4
17 -12 38 -17 45 -7 8 -7 12 1 12 7 0 19 -16 27 -35z"/>
<path d="M880 2889 c-76 -57 -153 -133 -206 -203 -53 -70 -129 -195 -122 -201
2 -3 26 32 53 77 76 128 173 238 283 319 44 34 60 49 50 49 -2 0 -28 -19 -58
-41z"/>
<path d="M1526 2579 c-26 -17 -46 -32 -43 -35 8 -8 116 49 111 58 -8 12 -15
10 -68 -23z"/>
<path d="M1575 2555 c-16 -9 -36 -22 -44 -30 -25 -25 12 -29 57 -6 l40 20 16
-24 c21 -31 21 -28 -14 -69 -22 -24 -27 -37 -19 -42 8 -4 21 3 34 19 11 15 26
27 32 27 17 0 62 -87 56 -108 -3 -11 1 -22 10 -25 17 -6 62 -131 53 -146 -4
-5 -2 -11 4 -13 5 -1 18 -28 29 -58 l20 -55 -27 -8 c-65 -19 -221 30 -326 102
-43 30 -62 64 -33 60 34 -4 50 5 83 51 19 27 44 52 55 55 27 9 24 33 -6 41
-14 3 -25 12 -25 20 0 10 -14 14 -51 14 -56 0 -88 22 -67 47 7 9 5 17 -6 28
-13 13 -20 14 -38 4 -23 -12 -23 -12 -4 10 22 24 13 41 -12 23 -9 -7 -28 -17
-42 -23 -19 -8 -21 -12 -10 -19 8 -5 11 -12 7 -16 -4 -4 -13 -2 -19 4 -7 7
-30 12 -53 12 -35 -1 -38 -2 -20 -12 32 -19 55 -52 51 -71 -3 -14 -1 -16 9 -7
7 6 20 8 29 4 9 -3 22 -1 29 5 16 13 147 -27 147 -45 0 -6 -18 -28 -40 -48
-37 -33 -58 -41 -102 -37 -10 1 -18 -4 -18 -13 0 -9 -7 -16 -16 -16 -35 0 -4
-25 35 -28 37 -3 44 -8 67 -45 15 -23 36 -52 47 -64 17 -19 18 -23 5 -23 -21
0 -78 -32 -78 -44 0 -10 45 0 84 20 20 10 33 11 40 4 14 -14 26 -12 26 5 0 20
34 19 106 -4 32 -11 85 -22 117 -26 54 -6 58 -8 73 -43 25 -62 36 -123 24
-137 -9 -10 -6 -19 9 -34 20 -20 21 -20 21 -2 0 42 -50 253 -83 351 -77 229
-173 422 -212 428 -11 1 -33 -5 -50 -13z m-165 -145 c0 -5 -4 -10 -9 -10 -6 0
-13 5 -16 10 -3 6 1 10 9 10 9 0 16 -4 16 -10z m90 -164 c0 -22 -29 -41 -42
-28 -8 8 -8 15 2 27 16 19 40 20 40 1z m40 -156 c8 -5 11 -12 7 -16 -4 -4 -15
0 -24 9 -18 18 -8 23 17 7z"/>
<path d="M570 2480 c-51 -57 -74 -96 -65 -110 5 -9 -41 -100 -51 -100 -2 0
-13 18 -24 40 -11 22 -24 40 -29 40 -13 0 -22 -46 -15 -75 5 -19 2 -25 -10
-25 -18 0 -21 -15 -6 -25 8 -5 8 -11 0 -20 -16 -20 -49 -141 -51 -189 -2 -72
-2 -140 1 -161 1 -11 0 -27 -4 -36 -9 -22 19 -49 50 -49 35 0 29 -16 -13 -37
-77 -37 -41 -76 45 -50 26 9 64 18 86 22 37 6 38 5 32 -17 -22 -74 -18 -228 7
-262 10 -13 11 4 9 84 -2 55 0 100 5 100 11 0 33 -49 33 -74 0 -12 4 -28 10
-36 8 -12 10 -12 16 3 7 20 3 47 -21 136 -16 62 -14 123 5 146 5 6 10 47 12
90 l3 80 19 -62 c11 -35 23 -63 28 -63 13 0 9 65 -7 103 -10 24 -15 70 -15
135 l0 99 36 32 c19 18 40 44 45 59 16 41 27 112 19 117 -4 2 -22 -9 -41 -25
-19 -16 -40 -29 -46 -30 -7 0 -13 -8 -13 -18 0 -54 -32 -15 -43 51 -4 27 0 52
15 85 48 111 45 117 -22 42z m-5 -53 c-7 -25 -41 -64 -49 -56 -2 2 7 23 21 47
27 46 38 50 28 9z m-5 -101 c0 -19 5 -38 10 -41 12 -8 13 -122 1 -129 -4 -3
-14 7 -20 21 -8 18 -15 23 -20 15 -5 -9 -14 -5 -30 12 -28 30 -24 71 12 123
29 43 47 42 47 -1z m130 -6 c0 -5 -5 -10 -11 -10 -5 0 -7 5 -4 10 3 6 8 10 11
10 2 0 4 -4 4 -10z m-37 -25 c-3 -9 -8 -14 -10 -11 -3 3 -2 9 2 15 9 16 15 13
8 -4z m-218 -36 c11 -21 13 -35 6 -47 -8 -15 -12 -12 -25 20 -29 68 -13 90 19
27z m246 23 c-11 -21 -41 -48 -41 -38 0 11 34 55 43 56 4 0 3 -8 -2 -18z
m-276 -125 c-4 -14 -13 -31 -21 -38 -11 -9 -14 -6 -14 15 0 15 5 37 11 48 15
27 32 9 24 -25z"/>
<path d="M631 2427 c-22 -52 -27 -87 -11 -87 11 0 43 105 37 123 -3 6 -14 -10
-26 -36z"/>
<path d="M1107 2417 c-53 -71 -59 -86 -53 -124 6 -36 5 -37 -9 -18 -8 11 -20
38 -25 60 -6 22 -14 54 -19 70 l-9 30 -1 -37 c-1 -20 4 -60 10 -88 14 -66 7
-72 -19 -17 -21 45 -46 65 -58 46 -3 -6 4 -21 16 -34 l23 -24 -39 6 c-22 3
-43 9 -49 13 -47 34 -124 2 -144 -60 -19 -55 -26 -386 -12 -488 37 -259 93
-422 178 -522 41 -47 52 -47 28 1 -16 29 -16 35 -2 58 14 24 14 30 -5 70 -23
51 -20 123 6 149 15 15 16 13 16 -26 0 -23 5 -42 10 -42 6 0 10 -7 10 -16 0
-32 33 -85 62 -100 44 -23 59 -10 17 15 -19 11 -42 32 -49 47 -13 24 -12 27
23 59 20 19 37 41 37 49 0 22 13 20 28 -4 7 -11 21 -20 33 -20 16 0 19 -4 14
-20 -4 -13 0 -23 14 -32 12 -7 21 -21 21 -31 0 -10 5 -15 10 -12 6 3 10 30 10
59 0 51 -3 55 -67 129 -65 75 -67 76 -84 58 -17 -18 -22 -18 -64 -6 -25 8 -50
17 -55 20 -6 3 -10 -1 -10 -9 0 -9 -4 -16 -10 -16 -5 0 -10 5 -10 10 0 19 30
70 41 70 12 0 66 57 80 85 6 11 -1 5 -16 -12 -31 -39 -60 -45 -51 -10 3 12 6
29 6 38 0 10 11 20 25 23 35 9 31 26 -5 26 -16 0 -33 -1 -37 -1 -5 -1 -13 -34
-20 -73 -6 -38 -25 -96 -42 -128 -23 -46 -26 -58 -14 -58 15 0 15 -12 -2 -53
-6 -14 -2 -13 19 6 14 14 24 31 21 39 -5 13 23 15 108 9 30 -2 13 -26 -19 -27
-70 -1 -70 -1 -82 -56 -6 -29 -9 -74 -7 -99 l5 -46 -30 5 c-25 4 -28 7 -20 22
14 27 13 30 -15 30 -31 0 -32 15 -3 31 19 10 19 12 5 21 -11 6 -17 22 -17 43
0 19 -4 54 -10 77 -27 121 -28 147 -6 176 13 18 15 22 4 14 -24 -19 -35 -9
-43 38 -4 22 -11 38 -16 34 -5 -3 -9 18 -9 48 0 48 3 56 43 96 39 40 40 42 14
33 -51 -19 -57 -15 -57 38 0 67 16 79 76 56 33 -12 43 -20 35 -28 -18 -18 -14
-49 7 -43 35 11 76 -8 84 -42 11 -42 28 -50 49 -24 14 18 19 19 28 8 6 -7 12
-26 12 -42 3 -52 8 -60 41 -62 35 -3 49 -17 41 -39 -4 -9 -15 -13 -29 -10 -13
2 -21 0 -18 -4 9 -15 54 -10 54 5 0 8 4 16 9 18 5 2 -9 32 -30 67 -46 77 -51
118 -14 127 13 3 27 15 30 26 10 29 30 16 33 -23 4 -53 12 -68 22 -43 5 12 21
25 36 28 24 6 32 2 55 -26 15 -18 26 -35 23 -37 -6 -7 17 -31 30 -31 6 0 2 7
-8 15 -11 8 -15 15 -9 15 6 0 16 -6 22 -14 14 -16 33 -17 179 -10 82 4 111 9
103 17 -8 8 -31 8 -84 -1 -89 -15 -124 -9 -204 35 -62 34 -63 34 -63 78 0 24
-4 47 -10 50 -5 3 -10 -1 -10 -9 0 -9 -4 -16 -10 -16 -18 0 -10 16 30 57 44
47 45 73 1 73 -24 0 -32 -9 -61 -67 -18 -38 -35 -63 -37 -56 -6 18 34 131 56
160 12 14 18 30 14 36 -4 6 -11 4 -18 -6 -20 -27 -27 -20 -23 22 2 22 0 37 -5
34 -4 -2 -7 -30 -5 -61 2 -65 -8 -105 -24 -96 -6 4 -17 -1 -24 -11 -11 -15
-16 -16 -29 -5 -21 17 -20 61 1 53 23 -8 35 16 28 55 -6 29 -2 39 29 70 l36
37 -24 27 -24 28 -24 -33z m16 -31 c-10 -13 -20 -22 -22 -20 -4 4 29 44 36 44
2 0 -4 -11 -14 -24z m-343 -131 c0 -8 -7 -15 -15 -15 -16 0 -20 12 -8 23 11
12 23 8 23 -8z m81 -5 c13 -7 19 -7 19 0 0 5 11 10 26 10 19 0 28 -8 40 -35
14 -35 39 -46 46 -23 7 20 37 -16 44 -51 4 -17 4 -38 0 -47 -5 -13 -11 -11
-35 14 -15 17 -41 34 -57 37 -16 3 -42 12 -59 20 -16 8 -42 17 -57 21 -38 8
-54 30 -38 49 14 17 43 19 71 5z m7 -90 c37 -17 72 -36 77 -44 6 -7 29 -25 53
-40 23 -15 40 -31 37 -36 -10 -16 -25 -12 -57 15 -16 14 -42 28 -56 31 -15 4
-43 20 -63 35 -20 16 -42 29 -47 29 -24 0 -63 21 -57 30 11 17 43 11 113 -20z
m223 -31 c6 -12 5 -27 -3 -43 -11 -25 -27 -35 -29 -18 0 4 -2 29 -5 56 -4 44
-3 48 11 36 9 -7 20 -21 26 -31z m-111 -140 c0 -5 -7 -9 -15 -9 -15 0 -20 12
-9 23 8 8 24 -1 24 -14z m88 -75 c-3 -27 -13 -31 -22 -8 -11 27 -7 44 9 38 8
-3 14 -17 13 -30z m17 -345 c12 -19 -2 -21 -32 -5 l-28 15 27 1 c15 0 30 -5
33 -11z m-85 -63 c0 -24 -16 -43 -27 -32 -8 8 6 56 17 56 6 0 10 -11 10 -24z"/>
<path d="M1290 2240 c0 -5 5 -10 10 -10 6 0 10 5 10 10 0 6 -4 10 -10 10 -5 0
-10 -4 -10 -10z"/>
<path d="M2926 2195 c4 -8 8 -15 10 -15 2 0 4 7 4 15 0 8 -4 15 -10 15 -5 0
-7 -7 -4 -15z"/>
<path d="M2660 2170 l-35 -7 38 -2 c20 0 37 4 37 9 0 6 -1 9 -2 9 -2 -1 -19
-5 -38 -9z"/>
<path d="M1670 2091 l-25 -7 24 -7 c28 -7 81 2 81 14 0 10 -44 10 -80 0z"/>
<path d="M2690 1997 c0 -27 -11 -44 -66 -97 -36 -36 -84 -87 -107 -114 -35
-41 -37 -47 -14 -32 27 18 27 18 27 -5 0 -13 3 -35 7 -48 l6 -23 12 28 13 29
10 -26 c6 -15 14 -43 17 -63 6 -31 3 -39 -26 -65 -41 -38 -33 -51 10 -16 32
27 51 26 51 -3 0 -9 4 -22 8 -29 4 -6 7 19 7 55 0 68 27 147 50 144 11 -1 88
-220 105 -301 7 -30 21 -72 31 -95 l19 -41 -5 35 c-5 30 0 25 32 -36 42 -77
113 -178 120 -170 2 2 -23 44 -56 93 -104 154 -251 550 -238 645 4 28 2 38 -9
38 -8 0 -14 7 -14 15 0 8 3 15 8 15 4 0 15 14 24 30 9 17 13 30 8 30 -4 0 -6
9 -3 20 4 14 0 20 -11 20 -11 0 -16 -9 -16 -33z m-10 -170 c0 -41 -32 -148
-44 -144 -10 3 -34 109 -35 155 -1 13 11 35 26 50 l27 27 12 -30 c7 -17 13
-42 14 -58z"/>
<path d="M1070 1991 c0 -6 4 -13 10 -16 6 -3 7 1 4 9 -7 18 -14 21 -14 7z"/>
<path d="M1618 1989 c12 -7 22 -18 22 -25 0 -8 6 -11 15 -8 20 8 19 21 -2 27
-10 2 -27 8 -38 11 -15 5 -15 4 3 -5z"/>
<path d="M2402 1969 c-24 -17 -41 -33 -39 -36 3 -2 26 12 52 31 57 44 47 47
-13 5z"/>
<path d="M1150 1938 c0 -18 18 -34 28 -24 3 4 -2 14 -11 23 -16 16 -17 16 -17
1z"/>
<path d="M1692 1893 c2 -14 -6 -19 -42 -23 l-45 -6 50 -5 c28 -3 53 -1 56 4 8
11 72 -31 65 -42 -3 -4 -50 -6 -105 -4 -57 1 -103 -2 -106 -8 -4 -5 -10 -7
-14 -5 -4 3 -13 -11 -20 -30 -14 -37 -31 -45 -31 -14 0 24 -16 26 -28 4 -10
-18 -5 -54 8 -54 4 0 11 -11 14 -25 9 -35 22 -31 46 14 19 38 59 76 69 66 3
-3 -5 -12 -17 -21 -25 -17 -29 -44 -7 -44 9 0 15 -10 15 -26 0 -14 -4 -23 -10
-19 -11 7 -13 -6 -4 -29 10 -27 37 -20 30 8 -5 19 1 28 34 51 29 20 41 37 46
62 l6 34 29 -33 c15 -18 28 -27 29 -20 0 6 9 12 20 12 13 0 20 -6 18 -14 -2
-7 8 -23 22 -34 18 -15 24 -28 23 -58 -1 -20 6 -48 14 -60 12 -19 13 -29 2
-61 -16 -52 -60 -114 -111 -158 -35 -30 -39 -35 -18 -29 14 4 41 25 60 47 90
102 117 167 127 302 5 74 4 79 -10 60 -9 -11 -17 -28 -17 -37 0 -38 -19 -15
-25 32 -4 28 -11 50 -16 50 -5 0 -9 7 -9 15 0 9 -6 12 -15 9 -21 -9 -19 12 5
36 25 25 27 49 2 27 -13 -12 -21 -14 -29 -6 -7 7 -24 13 -38 15 -15 1 -35 10
-44 18 -23 21 -33 20 -29 -1z m-46 -179 c-8 -20 -36 -18 -36 3 0 9 8 25 18 36
17 19 17 19 20 -3 2 -12 1 -28 -2 -36z"/>
<path d="M1216 1869 c-16 -16 -17 -19 -4 -19 9 0 19 7 22 16 9 24 4 24 -18 3z"/>
<path d="M1027 1853 c-4 -3 -7 -11 -7 -17 0 -6 5 -5 12 2 6 6 9 14 7 17 -3 3
-9 2 -12 -2z"/>
<path d="M1148 1854 c-8 -14 7 -61 15 -47 4 6 3 21 -1 34 -5 12 -11 18 -14 13z"/>
<path d="M1552 1841 c-7 -4 -24 -6 -36 -4 -27 6 -45 -15 -25 -28 20 -13 25
-11 56 16 28 24 30 32 5 16z"/>
<path d="M1151 1784 c-1 -6 6 -18 15 -25 9 -7 20 -22 24 -34 7 -17 9 -15 9 13
1 25 -3 32 -18 32 -11 0 -22 6 -24 13 -4 7 -6 8 -6 1z"/>
<path d="M2368 1667 c-16 -6 -28 -14 -28 -19 0 -8 48 10 65 24 12 11 -3 9 -37
-5z"/>
<path d="M1952 1405 c-51 -51 -79 -86 -72 -90 8 -5 9 -30 6 -74 l-6 -66 18 57
c10 35 31 71 53 95 50 53 114 166 91 162 -4 -1 -44 -39 -90 -84z"/>
<path d="M534 1259 c4 -120 30 -184 113 -270 l58 -61 -1 -127 c-1 -127 9 -130
22 -6 8 88 10 90 40 70 50 -33 32 -8 -59 81 -112 110 -141 160 -156 274 -18
136 -20 141 -17 39z"/>
<path d="M1660 1305 l-45 -11 82 -7 c51 -4 95 -2 115 5 40 13 65 34 28 24 -55
-16 -70 -18 -87 -11 -28 12 -45 12 -93 0z"/>
<path d="M2213 1217 c-23 -29 -62 -72 -87 -95 -25 -24 -66 -76 -92 -117 -26
-41 -52 -75 -57 -75 -5 0 -6 -10 -3 -22 4 -13 9 -40 11 -61 8 -70 26 -117 57
-152 17 -20 29 -37 27 -39 -2 -3 -18 2 -36 9 -36 15 -83 89 -110 173 -14 43
-14 55 -4 61 10 6 8 21 -8 71 -12 35 -22 79 -23 99 -1 27 -3 22 -7 -19 -6 -54
-6 -54 -84 -113 -127 -98 -78 -82 61 19 12 9 25 15 27 12 3 -2 9 -37 15 -77 5
-39 20 -91 31 -113 20 -40 21 -42 3 -55 -10 -7 -26 -13 -36 -13 -25 0 -23 -7
10 -35 15 -13 22 -25 16 -25 -14 0 -84 65 -84 79 0 6 -4 11 -10 11 -5 0 -10
-9 -10 -20 0 -10 -7 -23 -16 -28 -14 -8 -12 -10 10 -16 32 -8 25 -26 -9 -26
-13 0 -37 -11 -54 -25 l-30 -26 18 -42 c34 -80 34 -93 0 -132 -18 -20 -29 -39
-25 -42 3 -3 6 -3 6 2 0 4 8 1 18 -8 15 -14 23 -14 52 -4 19 7 44 18 55 25 17
10 18 13 6 21 -12 8 -8 15 17 36 18 15 32 35 32 46 0 17 3 18 20 7 16 -10 24
-10 40 0 12 7 25 10 30 7 10 -6 32 29 24 38 -4 3 7 5 22 5 54 -1 112 13 169
43 67 34 89 37 80 10 -5 -15 2 -22 32 -32 21 -7 81 -31 133 -55 139 -63 323
-113 305 -84 -3 6 -13 10 -21 10 -52 0 -344 297 -344 351 0 6 -8 23 -19 37
-21 30 -121 228 -141 280 -11 29 -10 37 6 68 12 21 24 32 32 29 10 -4 12 0 8
11 -3 8 -6 22 -6 30 0 25 -14 15 -57 -39z m-35 -211 c12 -52 22 -109 22 -125
0 -22 5 -31 16 -31 11 0 3 -14 -25 -46 -22 -25 -38 -51 -35 -59 3 -8 -12 -4
-43 11 -62 32 -69 40 -53 59 10 12 10 15 -5 15 -25 0 -55 29 -55 52 0 36 31
92 86 155 31 34 59 63 63 63 4 0 17 -42 29 -94z m-150 -214 c4 -25 -13 -30
-22 -6 -9 25 -7 36 7 32 6 -3 13 -14 15 -26z m-218 -376 c0 -11 -19 -15 -25
-6 -3 5 1 10 9 10 9 0 16 -2 16 -4z"/>
<path d="M958 1243 c7 -3 16 -2 19 1 4 3 -2 6 -13 5 -11 0 -14 -3 -6 -6z"/>
<path d="M1101 1167 c-17 -42 -13 -67 5 -28 8 19 13 39 10 45 -2 6 -9 -2 -15
-17z"/>
<path d="M1020 1081 c0 -6 5 -13 10 -16 6 -3 10 1 10 9 0 9 -4 16 -10 16 -5 0
-10 -4 -10 -9z"/>
<path d="M1058 990 c15 -33 31 -60 36 -60 5 0 21 -10 35 -22 24 -22 24 -21 -2
11 -15 18 -26 35 -24 38 2 2 27 -11 54 -30 27 -18 79 -46 115 -61 45 -19 68
-35 73 -50 4 -13 8 -16 12 -8 6 16 23 15 23 -2 0 -7 7 -19 15 -26 8 -7 15 -21
15 -32 0 -15 -5 -18 -22 -13 -13 4 -28 13 -34 21 -8 10 -15 0 -29 -44 -29 -93
-103 -222 -163 -284 -31 -32 -53 -60 -50 -63 3 -3 25 3 49 13 32 14 53 16 79
10 45 -10 113 0 170 24 91 40 178 68 201 66 20 -3 24 3 31 41 4 24 16 61 26
81 14 30 16 41 6 56 -6 10 -20 50 -29 87 -18 66 -20 68 -44 63 -87 -21 -107
-19 -172 17 -35 19 -98 47 -139 62 -84 30 -151 69 -195 115 -56 59 -66 56 -37
-10z m336 -312 c18 -36 21 -78 5 -78 -6 0 -8 7 -5 15 4 11 0 15 -12 13 -13 -2
-17 5 -18 32 -2 58 7 64 30 18z m-24 -86 c0 -10 5 -23 11 -29 23 -23 -47 -153
-81 -153 -11 0 -20 6 -20 13 0 22 38 138 50 153 7 8 9 14 4 14 -11 0 18 20 29
20 4 0 7 -8 7 -18z m114 -44 c-13 -24 -19 -28 -22 -16 -2 9 5 25 15 36 25 26
28 20 7 -20z"/>
<path d="M2911 1015 c28 -50 39 -63 33 -38 -3 11 -17 33 -31 49 l-25 29 23
-40z"/>
<path d="M1101 853 c1 -21 5 -51 9 -68 5 -23 7 -16 8 32 0 34 -3 65 -9 68 -5
4 -8 -10 -8 -32z"/>
<path d="M1226 721 c-9 -14 2 -89 15 -97 11 -6 11 63 0 90 -5 14 -10 16 -15 7z"/>
<path d="M692 650 c0 -14 2 -19 5 -12 2 6 2 18 0 25 -3 6 -5 1 -5 -13z"/>
<path d="M700 529 c0 -19 23 -68 31 -63 5 3 9 8 9 12 -1 9 -39 59 -40 51z"/>
<path d="M2075 520 c-3 -5 1 -10 10 -10 9 0 13 5 10 10 -3 6 -8 10 -10 10 -2
0 -7 -4 -10 -10z"/>
<path d="M2180 520 c0 -5 7 -10 15 -10 8 0 15 5 15 10 0 6 -7 10 -15 10 -8 0
-15 -4 -15 -10z"/>
<path d="M2228 523 c7 -3 16 -2 19 1 4 3 -2 6 -13 5 -11 0 -14 -3 -6 -6z"/>
<path d="M1895 440 c3 -5 8 -10 11 -10 2 0 4 5 4 10 0 6 -5 10 -11 10 -5 0 -7
-4 -4 -10z"/>
<path d="M1630 430 c0 -5 5 -10 10 -10 6 0 10 5 10 10 0 6 -4 10 -10 10 -5 0
-10 -4 -10 -10z"/>
<path d="M2007 419 c4 -15 8 -17 14 -8 8 14 3 29 -11 29 -4 0 -6 -9 -3 -21z"/>
<path d="M760 395 c0 -10 7 -15 18 -13 21 4 19 22 -2 26 -10 2 -16 -3 -16 -13z"/>
<path d="M1086 393 c-4 -9 -2 -21 4 -27 7 -7 10 -7 10 1 0 6 3 18 6 27 3 9 2
16 -4 16 -5 0 -13 -8 -16 -17z"/>
<path d="M1645 377 c-14 -27 -15 -38 -6 -55 12 -23 31 -30 31 -11 0 7 8 18 18
25 10 8 12 13 5 14 -7 0 -13 11 -13 24 0 38 -15 39 -35 3z"/>
<path d="M641 185 c-12 -49 -4 -145 10 -109 4 11 10 50 14 87 8 78 -6 91 -24
22z"/>
<path d="M1721 87 c0 -15 -8 -41 -16 -57 l-16 -30 36 0 c36 0 43 8 24 27 -7 7
-15 29 -19 50 -7 32 -8 33 -9 10z"/>
<path d="M1205 80 c-3 -5 1 -10 9 -10 9 0 16 5 16 10 0 6 -4 10 -9 10 -6 0
-13 -4 -16 -10z"/>
<path d="M1096 12 c-2 -4 4 -8 14 -8 10 0 16 4 14 8 -7 10 -21 10 -28 0z"/>
</g>
</svg>
